#!OML:ASF F:\VICON\USERDATA\INSTALL\rory3\rory3.ASF
:FULLY-SPECIFIED
:DEGREES
199
root 2.63036 17.1727 34.7508 -10.0153 -16.9356 8.77087
lowerback 33.8062 -2.47623 -2.3062
upperback 6.92114 -3.26822 7.03801
thorax -9.20937 -1.58589 10.0626
lowerneck -4.48938 -7.35374 -4.51213
upperneck 24.0714 -9.00372 -3.81501
head 8.23811 -5.0216 -1.27099
rclavicle -6.83819e-014 9.54166e-015
rhumerus -41.7663 -19.1958 -56.8867
rradius 90.6833
rwrist 31.3368
rhand -28.0896 13.9937
rfingers 7.12502
rthumb -1.47248 -15.981
lclavicle -6.83819e-014 9.54166e-015
lhumerus -49.0818 7.05968 80.8731
lradius 45.9107
lwrist 11.3808
lhand -9.27348 46.0205
lfingers 7.12502
lthumb 16.6832 75.3236
rfemur -40.7388 5.37438 10.1665
rtibia 48.8333
rfoot 4.0656 -1.42792
rtoes -17.9698
lfemur -10.7923 3.8968 -34.9386
ltibia 47.3453
lfoot -18.4135 4.64408
ltoes -16.9602
200
root 2.64676 17.1948 34.5939 -10.1005 -17.4995 8.99375
lowerback 33.5643 -2.51946 -2.4946
upperback 7.11781 -3.42611 6.87682
thorax -8.86473 -1.68151 10.0191
lowerneck -4.69672 -6.26687 -3.9828
upperneck 23.5735 -7.40965 -4.48586
head 8.04676 -4.28939 -1.43232
rclavicle -1.59028e-015 -1.27222e-014
rhumerus -42.0063 -17.7459 -57.5801
rradius 93.2518
rwrist 31.4071
rhand -27.3711 13.3726
rfingers 7.12502
rthumb -0.778505 -16.6058
lclavicle -1.59028e-015 -1.27222e-014
lhumerus -49.1629 7.54561 80.7235
lradius 45.3393
lwrist 11.3679
lhand -8.96785 46.4817
lfingers 7.12502
lthumb 16.9774 75.7598
rfemur -41.1698 5.51093 10.0734
rtibia 51.607
rfoot 2.48308 -1.28422
rtoes -18.3972
lfemur -11.3775 4.11578 -35.0539
ltibia 47.2241
lfoot -18.1059 4.83807
ltoes -15.213
201
root 2.65965 17.2354 34.4334 -9.91227 -18.5313 8.04597
lowerback 33.9849 -2.68228 -2.19196
upperback 6.91141 -3.4809 7.282
thorax -9.25234 -1.69703 10.3616
lowerneck -4.3423 -5.25791 -4.02683
upperneck 23.3535 -5.92498 -5.05577
head 7.89717 -3.6487 -1.4725
rclavicle 1.74931e-014 -6.99722e-014
rhumerus -41.9241 -16.1909 -57.9204
rradius 94.7627
rwrist 31.8998
rhand -26.4494 13.2024
rfingers 7.12502
rthumb 0.111723 -16.7774
lclavicle 1.74931e-014 -6.99722e-014
lhumerus -50.2307 8.61132 80.7134
lradius 44.9197
lwrist 11.4479
lhand -8.91774 46.6608
lfingers 7.12502
lthumb 17.0256 75.9347
rfemur -41.3055 6.24467 11.3151
rtibia 54.1088
rfoot 1.15998 -1.63986
rtoes -16.9998
lfemur -12.0339 4.69763 -33.7973
ltibia 47.2431
lfoot -17.7097 5.13372
ltoes -15.516
202
root 2.69318 17.2526 34.2568 -9.60731 -18.1692 8.57817
lowerback 33.9602 -3.1161 -2.50838
upperback 6.55788 -4.13056 7.16885
thorax -9.5052 -1.96896 10.6753
lowerneck -4.06659 -4.41946 -3.80456
upperneck 22.7417 -4.75492 -5.41511
head 7.63271 -3.09931 -1.50971
rclavicle 4.77083e-015 -4.13472e-014
rhumerus -41.7977 -14.9537 -58.4744
rradius 96.2664
rwrist 32.5175
rhand -25.7639 13.1415
rfingers 7.12502
rthumb 0.773743 -16.8368
lclavicle 4.77083e-015 -4.13472e-014
lhumerus -50.8065 9.33458 80.6368
lradius 44.5057
lwrist 11.175
lhand -8.90942 46.6845
lfingers 7.12502
lthumb 17.0336 75.9577
rfemur -41.8787 5.43032 10.5858
rtibia 56.7339
rfoot 0.165517 -1.70577
rtoes -15.0713
lfemur -13.1461 4.09151 -34.4208
ltibia 47.1982
lfoot -17.2024 5.27964
ltoes -15.0432
203
root 2.70149 17.296 34.1138 -9.65233 -19.1921 7.84239
lowerback 33.861 -3.05307 -1.91653
upperback 6.80129 -3.85617 7.31331
thorax -9.27127 -1.87735 10.3839
lowerneck -4.02902 -3.923 -3.58934
upperneck 22.2577 -4.11338 -5.39219
head 7.46438 -2.76538 -1.47568
rclavicle -4.77083e-014 5.725e-014
rhumerus -41.9288 -14.2469 -58.8659
rradius 97.8691
rwrist 33.203
rhand -25.8959 13.2371
rfingers 7.12502
rthumb 0.646336 -16.7417
lclavicle -4.77083e-014 5.725e-014
lhumerus -50.8576 9.26828 80.8156
lradius 43.9871
lwrist 11.1633
lhand -8.99349 47.1133
lfingers 7.12502
lthumb 16.9527 76.3934
rfemur -41.4554 6.0931 11.6448
rtibia 59.0766
rfoot -1.2372 -2.72392
rtoes -13.3901
lfemur -13.4253 4.70871 -33.325
ltibia 47.1497
lfoot -16.8401 5.27494
ltoes -14.2729
204
root 2.71939 17.3329 33.9562 -9.63415 -19.7626 7.50932
lowerback 33.8061 -3.03859 -1.50552
upperback 6.95358 -3.71009 7.33789
thorax -9.12432 -1.83052 10.1158
lowerneck -4.17302 -3.71186 -3.39844
upperneck 21.8633 -3.87561 -5.2285
head 7.35944 -2.61487 -1.43008
rclavicle 1.74931e-014 -9.54166e-015
rhumerus -42.4427 -13.4608 -59.1128
rradius 100.02
rwrist 33.7845
rhand -26.7796 12.4801
rfingers 7.12502
rthumb -0.207219 -17.4996
lclavicle 1.74931e-014 -9.54166e-015
lhumerus -50.6767 9.01179 81.0148
lradius 43.4474
lwrist 11.4056
lhand -9.44697 47.2816
lfingers 7.12502
lthumb 16.5161 76.5986
rfemur -41.323 6.2463 12.1852
rtibia 61.4953
rfoot -2.56281 -3.97948
rtoes -16.222
lfemur -13.8703 5.05725 -32.7184
ltibia 47.0091
lfoot -16.3822 4.96707
ltoes -12.3649
205
root 2.7333 17.3731 33.7926 -9.67245 -20.0783 7.6725
lowerback 33.9127 -3.05024 -1.55009
upperback 6.89459 -3.75371 7.18045
thorax -9.22564 -1.844 9.99183
lowerneck -3.82755 -2.88239 -2.65003
upperneck 20.9948 -2.78978 -5.59807
head 7.0007 -2.04785 -1.56881
rclavicle -4.77083e-014 0
rhumerus -42.6039 -13.4469 -59.4485
rradius 101.183
rwrist 34.4862
rhand -27.5274 12.5078
rfingers 7.12502
rthumb -0.929496 -17.4699
lclavicle -4.77083e-014 0
lhumerus -50.7587 8.98876 80.8563
lradius 43.0216
lwrist 11.1866
lhand -9.13375 47.4833
lfingers 7.12502
lthumb 16.8177 76.775
rfemur -41.2417 6.20803 12.1372
rtibia 63.8179
rfoot -3.47555 -4.88249
rtoes -17.8666
lfemur -14.3501 5.27614 -32.6347
ltibia 46.7191
lfoot -15.8709 4.61292
ltoes -10.6841
206
root 2.74351 17.4045 33.6189 -9.39981 -20.5573 7.39104
lowerback 34.07 -2.99159 -1.31771
upperback 6.69074 -3.57747 7.23961
thorax -9.55145 -1.74588 9.88905
lowerneck -3.84215 -2.48515 -2.44012
upperneck 20.6983 -2.30467 -5.43374
head 6.91233 -1.78025 -1.51133
rclavicle 8.90555e-014 -4.77083e-014
rhumerus -43.1082 -12.9934 -59.6211
rradius 102.837
rwrist 34.2864
rhand -27.4804 11.5787
rfingers 7.12502
rthumb -0.884086 -18.3992
lclavicle 8.90555e-014 -4.77083e-014
lhumerus -50.9973 9.00838 80.7739
lradius 42.6418
lwrist 10.6203
lhand -8.35809 47.8403
lfingers 7.12502
lthumb 17.5643 77.0669
rfemur -41.2177 6.3665 12.5449
rtibia 66.0199
rfoot -4.21835 -5.51216
rtoes -17.791
lfemur -15.13 5.49225 -32.0516
ltibia 46.4957
lfoot -15.2652 4.3276
ltoes -9.35292
207
root 2.75762 17.4358 33.4688 -9.51338 -20.8109 7.7945
lowerback 33.7998 -2.97271 -1.49893
upperback 6.77288 -3.6457 7.10028
thorax -9.33958 -1.78544 9.83779
lowerneck -3.95035 -2.0284 -2.47717
upperneck 20.3019 -1.71765 -5.21924
head 6.81549 -1.47628 -1.39007
rclavicle 1.11319e-014 -2.22639e-014
rhumerus -43.2987 -12.7251 -59.8013
rradius 104.298
rwrist 33.9755
rhand -27.0427 10.7339
rfingers 7.12502
rthumb -0.461312 -19.2453
lclavicle 1.11319e-014 -2.22639e-014
lhumerus -50.882 9.17548 80.7538
lradius 42.33
lwrist 9.92946
lhand -7.60421 47.8707
lfingers 7.12502
lthumb 18.2896 77.0309
rfemur -40.8496 6.20283 12.1485
rtibia 68.1919
rfoot -4.69337 -5.86414
rtoes -16.651
lfemur -15.5251 5.67204 -32.2457
ltibia 46.1524
lfoot -14.6532 4.14985
ltoes -11.5189
208
root 2.76696 17.4641 33.3077 -9.45657 -21.219 7.56327
lowerback 33.833 -3.00442 -1.31558
upperback 6.80374 -3.62607 7.12247
thorax -9.32867 -1.78348 9.75398
lowerneck -4.52303 -1.76596 -2.86798
upperneck 20.6112 -1.45962 -4.22132
head 7.03434 -1.31358 -0.996479
rclavicle -3.81667e-014 -3.49861e-014
rhumerus -43.5003 -12.39 -60.0126
rradius 105.588
rwrist 33.6624
rhand -26.4684 10.604
rfingers 7.12502
rthumb 0.0933893 -19.3758
lclavicle -3.81667e-014 -3.49861e-014
lhumerus -50.9126 9.13684 80.7847
lradius 42.1581
lwrist 9.61607
lhand -7.35734 47.9754
lfingers 7.12502
lthumb 18.5271 77.1132
rfemur -40.338 6.28073 12.4996
rtibia 70.1491
rfoot -5.00975 -6.23467
rtoes -15.5821
lfemur -16.0439 5.90389 -31.704
ltibia 46.0245
lfoot -14.1162 3.84891
ltoes -13.7467
209
root 2.77649 17.4834 33.1385 -9.30761 -21.488 7.57286
lowerback 33.9973 -2.96653 -1.32696
upperback 6.57575 -3.56141 7.14227
thorax -9.65595 -1.73169 9.7849
lowerneck -4.52288 -1.33929 -2.38658
upperneck 20.2491 -0.889425 -4.48344
head 6.91433 -1.01859 -1.11557
rclavicle 4.92986e-014 -1.11319e-013
rhumerus -44.0664 -11.5615 -60.0878
rradius 107.056
rwrist 33.4262
rhand -26.1362 10.0379
rfingers 7.12502
rthumb 0.414192 -19.9414
lclavicle 4.92986e-014 -1.11319e-013
lhumerus -51.0924 8.89858 80.8868
lradius 41.8603
lwrist 9.13424
lhand -6.64624 47.9957
lfingers 7.12502
lthumb 19.211 77.0669
rfemur -39.9573 6.2834 12.4951
rtibia 72.0093
rfoot -5.59783 -6.19612
rtoes -14.448
lfemur -16.6762 6.03213 -31.4586
ltibia 45.7238
lfoot -13.5308 3.47565
ltoes -14.6769
